<svg width="202" height="247" viewBox="0 0 202 247" fill="none" xmlns="http://www.w3.org/2000/svg">
<g clip-path="url(#clip0_36_398)">
<path d="M81.5827 199.106C81.2058 198.362 79.5755 199.159 79.2758 198.483C78.9771 197.81 80.4919 196.784 81.3573 194.442C81.5134 194.019 82.4968 191.357 81.7688 190.535C80.3888 188.978 74.0738 195.404 71.8638 193.301C71.3788 192.84 71.04 191.918 69.5721 190.423C68.9881 189.828 68.635 189.559 68.2933 189.659C67.8084 189.801 67.77 190.561 67.25 192.056C66.4702 194.297 66.009 194.162 65.5547 195.95C65.2174 197.278 65.2944 198.049 64.8975 198.2C64.3359 198.413 63.819 197.004 63.1072 197.131C62.3809 197.259 61.9418 198.899 61.8031 200.126C61.5428 202.43 62.2651 203.95 62.6654 205.548C63.1004 207.285 63.3586 209.927 62.354 213.667L52.4104 246.483C54.6056 239.749 60.9619 221.29 63.6328 214.43C64.4038 212.45 65.2551 210.442 67.0032 209.649C68.6862 208.886 70.9975 209.342 73.9442 208.51C74.2883 208.413 75.2433 208.128 75.3635 207.47C75.4629 206.926 74.9011 206.623 74.9874 206.113C75.1032 205.43 76.2078 205.422 77.5653 204.633C78.5225 204.077 79.1188 203.416 79.6316 202.848C79.7862 202.676 82.0844 200.097 81.5827 199.106Z" fill="#F2F2F2"/>
<path d="M42.4618 216.382C42.0412 216.383 41.9047 217.551 41.5352 217.528C41.167 217.506 41.1743 216.339 40.4424 215.165C40.3104 214.954 39.4786 213.62 38.9243 213.802C37.8736 214.146 38.7441 219.63 37.2253 220.294C36.892 220.44 36.4082 220.369 35.3579 220.781C34.9401 220.945 34.7256 221.071 34.6689 221.296C34.5884 221.616 34.8959 221.857 35.3721 222.587C36.0864 223.682 35.8966 223.908 36.5148 224.685C36.9738 225.262 37.3194 225.441 37.2679 225.712C37.1951 226.097 36.4559 225.988 36.3033 226.433C36.1477 226.888 36.708 227.613 37.1823 228.047C38.0725 228.862 38.9178 228.885 39.7031 229.116C40.5564 229.367 41.7378 229.981 43.0149 231.637L53.8964 246.822C51.7082 243.617 45.8075 234.637 43.7039 231.123C43.0967 230.108 42.5007 229.039 42.6729 227.805C42.8387 226.618 43.6965 225.42 44.1983 223.486C44.257 223.26 44.4132 222.629 44.1722 222.37C43.973 222.156 43.6837 222.392 43.4951 222.195C43.2422 221.931 43.5574 221.294 43.6187 220.286C43.662 219.575 43.557 219.042 43.4667 218.583C43.4395 218.445 43.0217 216.379 42.4618 216.382Z" fill="#F2F2F2"/>
<path d="M50.8531 218.588L50.5997 215.938L50.7155 215.737C51.2513 214.808 51.5244 213.901 51.5277 213.04C51.5282 212.903 51.5227 212.766 51.5173 212.627C51.4954 212.074 51.4681 211.387 51.774 210.586C51.9455 210.14 52.4272 209.106 53.1514 209.234C53.3464 209.266 53.4939 209.371 53.6058 209.493C53.6222 209.463 53.6391 209.432 53.6572 209.399C53.8827 208.996 54.0613 208.823 54.2334 208.657C54.3655 208.529 54.5021 208.397 54.7162 208.085C54.8101 207.948 54.8833 207.828 54.945 207.727C55.1324 207.421 55.377 207.056 55.8085 207.062C56.2694 207.088 56.5109 207.535 56.6709 207.83C56.9565 208.357 57.086 208.737 57.1717 208.989C57.2028 209.081 57.2384 209.185 57.2564 209.217C57.4049 209.473 58.6125 209.234 59.0674 209.147C60.0893 208.947 60.9736 208.774 61.3379 209.529C61.5989 210.069 61.405 210.783 60.7442 211.708C60.5383 211.996 60.3193 212.215 60.1248 212.386C60.2859 212.499 60.4301 212.672 60.4886 212.943C60.6262 213.585 60.1549 214.229 59.0882 214.858C58.8233 215.016 58.4667 215.226 57.9669 215.327C57.7315 215.374 57.5196 215.385 57.3383 215.392C57.3345 215.515 57.3099 215.648 57.246 215.785C57.0587 216.188 56.6687 216.38 56.081 216.334C55.4344 216.294 54.9019 216.149 54.4322 216.023C54.022 215.913 53.6686 215.819 53.3912 215.841C52.8767 215.89 52.4802 216.372 52.0149 216.998L50.8531 218.588Z" fill="#F2F2F2"/>
<path d="M52.0287 202.811L49.9047 203.77L49.7095 203.69C48.8065 203.319 47.9881 203.239 47.2761 203.454C47.1629 203.488 47.0513 203.529 46.9375 203.571C46.4866 203.736 45.9261 203.941 45.1871 203.797C44.7748 203.716 43.7989 203.433 43.7209 202.58C43.6979 202.351 43.7471 202.157 43.8201 201.999C43.7906 201.988 43.7609 201.977 43.7289 201.965C43.3389 201.812 43.1509 201.653 42.9699 201.5C42.8307 201.383 42.6873 201.262 42.3752 201.098C42.2383 201.027 42.1204 200.974 42.0213 200.93C41.7212 200.795 41.358 200.611 41.2539 200.12C41.1581 199.591 41.4656 199.205 41.6691 198.948C42.032 198.491 42.3129 198.248 42.4993 198.087C42.5675 198.028 42.6441 197.962 42.6659 197.933C42.8396 197.7 42.3357 196.392 42.1484 195.899C41.7244 194.792 41.3575 193.834 41.8885 193.229C42.2682 192.797 42.9069 192.835 43.8385 193.349C44.1284 193.51 44.3647 193.702 44.5556 193.879C44.6077 193.668 44.7138 193.461 44.9229 193.326C45.4184 193.007 46.0695 193.378 46.8599 194.427C47.057 194.687 47.3208 195.038 47.531 195.578C47.6298 195.833 47.6931 196.07 47.7444 196.274C47.8468 196.247 47.9629 196.241 48.0921 196.279C48.4725 196.389 48.7299 196.782 48.8409 197.46C48.9722 198.202 48.9879 198.842 49.0024 199.407C49.0156 199.899 49.0281 200.323 49.1164 200.632C49.2871 201.203 49.786 201.53 50.4207 201.898L52.0287 202.811Z" fill="#F2F2F2"/>
<path d="M50.8531 195.005L50.5997 192.355L50.7155 192.154C51.2513 191.225 51.5244 190.318 51.5277 189.457C51.5282 189.32 51.5227 189.183 51.5173 189.044C51.4954 188.491 51.4681 187.804 51.774 187.003C51.9455 186.556 52.4272 185.523 53.1514 185.65C53.3464 185.682 53.4939 185.787 53.6058 185.91C53.6222 185.88 53.6391 185.849 53.6572 185.816C53.8827 185.412 54.0613 185.24 54.2334 185.073C54.3655 184.945 54.5021 184.814 54.7162 184.502C54.8101 184.365 54.8833 184.244 54.945 184.143C55.1324 183.837 55.377 183.473 55.8085 183.479C56.2694 183.505 56.5109 183.951 56.6709 184.247C56.9565 184.774 57.086 185.154 57.1717 185.406C57.2028 185.498 57.2384 185.602 57.2564 185.634C57.4049 185.89 58.6125 185.65 59.0674 185.563C60.0893 185.364 60.9736 185.191 61.3379 185.946C61.5989 186.486 61.405 187.2 60.7442 188.125C60.5383 188.413 60.3193 188.632 60.1248 188.803C60.2859 188.916 60.4301 189.088 60.4886 189.36C60.6262 190.002 60.1549 190.646 59.0882 191.275C58.8233 191.432 58.4667 191.642 57.9669 191.743C57.7315 191.791 57.5196 191.802 57.3383 191.809C57.3345 191.931 57.3099 192.064 57.246 192.201C57.0587 192.604 56.6687 192.796 56.081 192.75C55.4344 192.711 54.9019 192.566 54.4322 192.439C54.022 192.329 53.6686 192.236 53.3912 192.258C52.8767 192.306 52.4802 192.789 52.0149 193.414L50.8531 195.005Z" fill="#F2F2F2"/>
<path d="M53.1677 246.44L52.6936 246.092L52.1409 246.166C52.1322 246.106 52.1021 245.967 52.0568 245.751C51.8094 244.566 51.0552 240.961 50.426 235.283C49.9869 231.319 49.7384 227.244 49.687 223.168C49.6357 219.087 49.8006 215.997 49.9328 213.514C50.0327 211.64 50.154 209.857 50.273 208.119C50.5898 203.477 50.8886 199.093 50.6663 194.238C50.6171 193.155 50.5139 190.899 49.3888 188.499C48.7361 187.107 47.8372 185.871 46.7164 184.827L47.4133 183.8C48.6504 184.954 49.6449 186.324 50.3697 187.869C51.6172 190.53 51.7297 192.988 51.7837 194.169C52.0098 199.109 51.7078 203.536 51.3878 208.223C51.2698 209.954 51.1485 211.73 51.0491 213.595C50.9181 216.056 50.7548 219.119 50.8056 223.148C50.8558 227.175 51.1016 231.2 51.5347 235.114C52.1562 240.72 52.8996 244.272 53.1437 245.439C53.2737 246.062 53.301 246.193 53.1677 246.44Z" fill="#F2F2F2"/>
<path d="M44.6651 186.908C44.6193 186.908 44.5728 186.907 44.5259 186.903C43.5733 186.843 42.6913 186.175 41.9037 184.919C41.5345 184.328 41.3456 183.653 40.9687 182.309C40.9103 182.101 40.6262 181.05 40.4537 179.602C40.3406 178.657 40.3548 178.262 40.5148 177.912C40.6923 177.523 40.9796 177.252 41.3029 177.069C41.2888 176.944 41.3002 176.814 41.3466 176.683C41.5373 176.136 42.0441 176.208 42.3183 176.243C42.457 176.263 42.6301 176.29 42.8169 176.278C43.1108 176.262 43.2686 176.159 43.5078 176.006C43.7367 175.859 44.0212 175.676 44.4434 175.575C45.2758 175.371 45.9732 175.648 46.2031 175.738C47.4129 176.211 48.0093 177.312 48.6996 178.588C48.8373 178.844 49.3097 179.775 49.6216 181.052C49.8466 181.973 49.8149 182.383 49.7472 182.687C49.6095 183.313 49.2846 183.671 48.4593 184.462C47.5975 185.29 47.1649 185.704 46.7935 185.956C45.929 186.541 45.3861 186.908 44.6651 186.908Z" fill="#F2F2F2"/>
<path d="M97.0606 244.197L99.9898 244.197L101.383 230.963L97.0601 230.963L97.0606 244.197Z" fill="#FFB6B6"/>
<path d="M107.096 244.119C107.188 244.299 107.236 244.88 107.236 245.089C107.236 245.732 106.791 246.254 106.242 246.254H97.1702C96.7957 246.254 96.492 245.898 96.492 245.459V245.017C96.492 245.017 96.0433 243.687 96.9672 242.048C96.9672 242.048 98.1154 243.332 99.8313 241.322L100.337 240.248L104 243.386L106.03 243.678C106.474 243.742 106.868 243.669 107.096 244.119Z" fill="#2F2E41"/>
<path d="M88.1335 244.197L91.0627 244.197L92.4561 230.963L88.1329 230.963L88.1335 244.197Z" fill="#FFB6B6"/>
<path d="M98.1693 244.119C98.2605 244.299 98.3086 244.88 98.3086 245.089C98.3086 245.732 97.8635 246.254 97.3144 246.254H88.2431C87.8686 246.254 87.5649 245.898 87.5649 245.459V245.017C87.5649 245.017 87.1161 243.687 88.04 242.048C88.04 242.048 89.1883 243.332 90.9041 241.322L91.4101 240.248L95.0727 243.386L97.1029 243.678C97.547 243.742 97.9408 243.669 98.1693 244.119Z" fill="#2F2E41"/>
<path d="M100.445 187.045L103.569 201.217L102.007 237.611L94.6419 238.189L94.1956 217.238L93.3028 238.805L85.7148 236.956L85.2684 189.51L100.445 187.045Z" fill="#2F2E41"/>
<path d="M70.1977 139.328C69.1896 137.256 67.4596 136.185 66.3338 136.937C65.2081 137.689 65.113 139.978 66.1217 142.05C66.515 142.885 67.0731 143.597 67.7494 144.127L72.1156 152.843L75.5641 150.356L70.8937 142.027C70.8491 141.075 70.6104 140.15 70.1977 139.328Z" fill="#FFB6B6"/>
<path d="M90.04 170.099C90.04 170.099 85.902 176.78 83.371 174.393C80.8401 172.005 66.8568 145.17 66.8568 145.17L72.4062 141.686L90.04 170.099Z" fill="#F9A826"/>
<path d="M86.1611 161.949L91.5174 152.538L96.8737 155.152L95.5346 163.518L86.1611 161.949Z" fill="#FFB6B6"/>
<path d="M86.6075 159.858L95.981 159.335L102.23 161.426L103.569 200.116L84.8221 198.024V177.622L82.1439 167.177L86.6075 159.858Z" fill="#F9A826"/>
<path d="M102.077 185.955C101.748 184.83 101.616 183.642 101.701 182.457C101.941 179.112 101.986 172.557 99.0755 169.596L97.4314 167.51C97.3972 167.467 97.3587 167.43 97.3239 167.387L100.044 159.897L98.4009 159.079L95.876 166.031C94.7561 165.232 93.4643 164.79 92.1282 164.79C90.585 164.79 89.1098 165.38 87.8909 166.418L86.351 159.809L84.6283 160.36L86.5537 167.897C86.4838 167.997 86.4073 168.089 86.341 168.193L85.4003 169.672C85.1713 170.032 84.9185 170.366 84.6446 170.68C84.0672 171.343 82.9408 172.951 82.9298 175.427C82.9261 176.274 82.7775 177.111 82.5572 177.918L81.439 182.011C81.3341 182.395 81.2517 182.786 81.1957 183.184C80.7028 186.689 78.9964 203.199 90.659 202.869C101.531 202.561 102.246 194.807 102.183 192.231C102.169 191.673 102.212 191.118 102.301 190.569C102.464 189.561 102.611 187.779 102.077 185.955Z" fill="#3F3D56"/>
<path d="M151.191 18.8305L152.208 37.2167L139.424 40.6526L140.314 25.7865L151.191 18.8305Z" fill="#FFB6B6"/>
<path d="M152.164 242.283L146.402 242.283L143.661 216.248L152.166 216.249L152.164 242.283Z" fill="#FFB6B6"/>
<path d="M132.422 242.13C132.242 242.484 132.148 243.627 132.148 244.038C132.148 245.303 133.023 246.329 134.103 246.329H151.949C152.686 246.329 153.283 245.629 153.283 244.766V243.896C153.283 243.896 154.166 241.28 152.348 238.057C152.348 238.057 150.09 240.581 146.714 236.627L145.719 234.515L138.513 240.687L134.52 241.263C133.646 241.389 132.871 241.244 132.422 242.13Z" fill="#2F2E41"/>
<path d="M167.787 242.283L162.024 242.283L159.283 216.248L167.788 216.249L167.787 242.283Z" fill="#FFB6B6"/>
<path d="M148.044 242.13C147.865 242.484 147.77 243.627 147.77 244.038C147.77 245.303 148.646 246.329 149.726 246.329H167.571C168.308 246.329 168.906 245.629 168.906 244.766V243.896C168.906 243.896 169.788 241.28 167.971 238.057C167.971 238.057 165.712 240.581 162.336 236.627L161.341 234.515L154.136 240.687L150.142 241.263C149.268 241.389 148.494 241.244 148.044 242.13Z" fill="#2F2E41"/>
<path d="M171.415 118.554C171.415 118.554 176.325 125.874 175.432 130.056C174.54 134.239 168.291 230.44 168.291 230.44L159.364 229.917L154.007 143.65L152.63 230.44L144.187 229.917L133.475 122.214L171.415 118.554Z" fill="#2F2E41"/>
<path d="M119.804 141.893C118.96 145.682 116.607 148.244 114.548 147.614C112.489 146.984 111.505 143.403 112.35 139.612C112.669 138.092 113.295 136.684 114.175 135.506L117.924 119.503L124.298 121.724L119.925 137.264C120.201 138.796 120.16 140.383 119.804 141.893Z" fill="#FFB6B6"/>
<path d="M140.807 34.0883C147.851 34.0883 153.561 27.3997 153.561 19.1489C153.561 10.8982 147.851 4.20959 140.807 4.20959C133.763 4.20959 128.052 10.8982 128.052 19.1489C128.052 27.3997 133.763 34.0883 140.807 34.0883Z" fill="#FFB6B6"/>
<path d="M139.278 38.0385L152.668 34.9015L167.398 43.7896L170.523 100.778L174.54 122.214L133.029 122.737L134.814 93.9812L132.136 48.4951L139.278 38.0385Z" fill="#E6E6E6"/>
<path d="M136.153 50.0636C136.153 50.0636 129.011 47.4494 126.333 52.1549C123.655 56.8603 118.745 99.2095 118.745 99.2095L113.835 131.102L122.762 132.671L137.492 76.7279L136.153 50.0636Z" fill="#E6E6E6"/>
<path d="M201.113 123.563C202.568 127.089 202.194 130.827 200.278 131.911C198.362 132.996 195.63 131.016 194.175 127.489C193.577 126.089 193.274 124.542 193.292 122.977L187.287 107.946L193.369 104.796L198.643 119.948C199.701 120.905 200.548 122.144 201.113 123.563Z" fill="#FFB6B6"/>
<path d="M161.808 44.3315C161.808 44.3315 168.221 39.8178 171.772 43.6505C175.322 47.4831 188.622 87.2805 188.622 87.2805L199.816 116.916L191.457 120.907L165.876 70.6133L161.808 44.3315Z" fill="#E6E6E6"/>
<path d="M192.679 246.378C192.679 246.723 192.442 247 192.148 247H0.531164C0.236582 247 0 246.723 0 246.378C0 246.211 0.0535895 246.064 0.142839 245.954H40.1899C41.0425 245.954 41.8772 245.886 42.6985 245.756H192.148C192.442 245.756 192.679 246.033 192.679 246.378Z" fill="#3F3D56"/>
<path d="M114.224 143.54C115.02 141.345 116.633 140.047 117.825 140.642C119.018 141.236 119.338 143.496 118.541 145.692C118.233 146.574 117.749 147.357 117.13 147.975L113.654 157.225L109.983 155.222L113.799 146.316C113.749 145.364 113.895 144.412 114.224 143.54Z" fill="#FFB6B6"/>
<path d="M91.0116 159.486C95.5457 159.486 99.2213 155.181 99.2213 149.87C99.2213 144.559 95.5457 140.254 91.0116 140.254C86.4775 140.254 82.8019 144.559 82.8019 149.87C82.8019 155.181 86.4775 159.486 91.0116 159.486Z" fill="#FFB6B6"/>
<path d="M101.337 161.426L109.372 157.766L112.05 146.787L117.852 149.401L113.389 165.086L101.337 170.479V161.426Z" fill="#F9A826"/>
<path d="M89.9319 160.562L94.8283 155.896C94.8283 155.896 94.3649 148.903 96.1252 148.273C97.8854 147.644 99.7211 145.132 99.7211 145.132C99.7211 145.132 96.8077 137.423 91.6796 138.593C86.5515 139.763 87.7216 137.984 84.5613 139.944C81.401 141.904 80.66 144.52 81.0444 147.299C81.4287 150.079 80.2846 156.984 84.1122 157.339C87.9399 157.695 89.9319 160.562 89.9319 160.562Z" fill="#2F2E41"/>
<path d="M133.082 22.4936C132.151 20.5055 132.634 19.5564 131.795 18.7792C131.795 18.7792 131.457 18.4665 128.913 18.0681C128.67 13.1925 127.996 12.5409 127.996 12.5408C127.219 11.7899 125.982 11.8946 125.194 12.2357C123.528 12.9571 123.586 14.8578 122.479 15.1169C120.951 15.4748 125.118 12.4139 125.069 9.17606C125.03 6.53486 126.645 4.12438 127.207 4.31253C127.765 4.4991 129.261 2.59653 129.991 2.69642C130.49 2.76463 132.606 1.91494 133.151 2.0478C133.745 2.19292 135.644 3.58901 135.745 3.32011C136.45 1.45157 136.318 0.902462 136.842 0.398099C137.771 -0.495626 139.135 0.314959 141.323 0.886369C145.826 2.06205 146.741 0.377661 148.993 1.78815C150.131 2.50066 151.007 4.21701 152.712 7.62062C155.096 12.3805 156.288 14.7605 156.117 17.3903C155.943 20.0722 154.846 19.7983 154.089 23.7219C153.246 28.0894 154.259 30.2175 152.903 31.5352C151.855 32.5536 143.166 32.632 142.194 31.5612C140.53 29.7279 143.131 25.9231 141.364 22.8002C140.279 20.8833 137.906 19.8533 136.732 20.6409C135.406 21.5315 135.897 24.5558 134.993 24.7536C134.219 24.9231 133.244 22.8401 133.082 22.4936Z" fill="#2F2E41"/>
<path d="M71.2654 144.03C73.0421 142.272 72.5703 138.196 70.2117 134.926C69.1793 133.494 67.9564 132.454 66.7587 131.885L65.382 130.024L47.6052 103.934C47.6052 103.934 37.7606 77.9801 34.8545 75.1762C31.9485 72.3722 28.5294 73.8321 28.5294 73.8321L25.8617 77.698L42.4855 113.936L59.4989 133.992L61.7956 136.796C62.0746 138.275 62.7454 139.861 63.7779 141.292C66.1365 144.562 69.4887 145.788 71.2654 144.03Z" fill="#FFB6B6"/>
<path d="M37.709 80.002L42.1639 87.6548L48.5593 98.7417L37.0679 103.398L26.9218 83.0055L37.709 80.002Z" fill="#E6E6E6"/>
<path d="M42.232 53.9566L39.0055 68.3651L26.7046 65.5306C26.7046 65.5306 31.5443 55.1376 30.3344 50.4136L42.232 53.9566Z" fill="#FFB6B6"/>
<path d="M29.2468 241.51L36.6544 241.509L40.1782 208.041L29.2454 208.042L29.2468 241.51Z" fill="#FFB6B6"/>
<path d="M54.626 241.313C54.8566 241.768 54.9783 243.236 54.9783 243.766C54.9783 245.392 53.8527 246.71 52.4642 246.71H29.5239C28.5767 246.71 27.8087 245.811 27.8087 244.701V243.583C27.8087 243.583 26.6739 240.22 29.0103 236.076C29.0103 236.076 31.9142 239.321 36.2533 234.239L37.5329 231.523L46.7951 239.458L51.9291 240.198C53.0523 240.36 54.0482 240.173 54.626 241.313Z" fill="#2F2E41"/>
<path d="M49.815 144.654L39.6077 226.014H26.8013L28.5042 179.572L29.4004 155.152L26.8013 143.529C26.8013 143.529 25.6163 140.945 24.6179 137.813C23.4926 134.279 22.6039 130.042 23.9233 128.032C24.4088 127.292 25.671 126.744 27.3863 126.335C28.4345 126.084 29.6544 125.889 30.9713 125.737C38.5447 124.86 49.3171 125.408 49.3171 125.408L49.5909 135.993L49.7428 141.904L49.815 144.654Z" fill="#2F2E41"/>
<path d="M16.1982 237.531L23.5271 238.792L31.1695 206.281L20.3528 204.419L16.1982 237.531Z" fill="#FFB6B6"/>
<path d="M41.3319 241.66C41.5035 242.15 41.4416 243.623 41.3759 244.147C41.1739 245.756 39.8966 246.868 38.5228 246.632L15.8265 242.723C14.8893 242.562 14.2413 241.541 14.3791 240.443L14.518 239.337C14.518 239.337 13.8128 235.817 16.639 232.115C16.639 232.115 19.109 235.82 24.0331 231.531L25.6362 229.062L33.8147 238.491L38.8021 240.098C39.8932 240.449 40.9018 240.434 41.3319 241.66Z" fill="#2F2E41"/>
<path d="M49.9756 131.086L48.5756 145.208L40.9406 174.969L28.372 223.965L15.7032 221.784L27.0734 152.119L25.9475 140.174C25.9475 140.174 25.5809 138.986 25.1606 137.248C24.3264 133.809 23.2801 128.208 24.4312 125.351C24.5866 124.963 24.7818 124.626 25.0231 124.353C25.4759 123.839 26.3961 123.527 27.6289 123.361C32.7819 122.679 43.3942 124.63 48.1165 125.588L49.9756 131.086Z" fill="#2F2E41"/>
<path d="M40.2155 64.1134L54.1296 84.6631L51.632 106.088L49.4916 127.888L24.2847 123.401C24.2847 123.401 29.7294 108.047 30.3344 107.339C30.9393 106.63 32.4589 108.38 31.3966 106.088C30.3344 103.796 29.1245 103.796 30.1327 102.615C31.141 101.434 22.2682 86.0803 22.2682 77.8132C22.2682 69.5461 26.5029 62.9324 26.5029 62.9324L40.2155 64.1134Z" fill="#E6E6E6"/>
<path d="M36.9691 56.6776C42.1458 56.6776 46.3424 51.7621 46.3424 45.6984C46.3424 39.6348 42.1458 34.7192 36.9691 34.7192C31.7924 34.7192 27.5958 39.6348 27.5958 45.6984C27.5958 51.7621 31.7924 56.6776 36.9691 56.6776Z" fill="#FFB6B6"/>
<path d="M36.5311 66.6903C36.5311 66.6903 37.9337 53.6908 38.182 49.9105C38.4302 46.1301 42.9859 40.2279 42.9859 40.2279L46.2133 43.2813C46.2133 43.2813 48.9442 43.2813 47.0822 38.6286C45.2202 33.9758 41.7446 33.2488 41.7446 33.2488C41.7446 33.2488 41.3722 27.1421 34.9174 27.8691C28.4626 28.5961 25.6076 34.7028 25.6076 34.7028C25.6076 34.7028 25.2352 26.9968 21.1389 32.6673C17.0426 38.3378 14.6841 40.6641 19.0287 42.5543C23.3733 44.4445 26.6007 42.9905 26.6007 42.9905C26.6007 42.9905 22.3802 44.0083 23.125 47.4978C23.8698 50.9874 13.3187 66.8357 18.1598 68.5805C23.0009 70.3252 33.8002 74.5417 35.0415 71.7792C36.2828 69.0166 36.5311 66.6903 36.5311 66.6903Z" fill="#2F2E41"/>
<path d="M75.1697 145.119C76.9588 143.378 76.5163 139.298 74.1812 136.004C73.159 134.563 71.9436 133.511 70.75 132.93L69.3867 131.056L51.7972 104.792C51.7972 104.792 42.1387 78.7423 39.2528 75.9099C36.3669 73.0776 32.9375 74.5038 32.9375 74.5038L30.2422 78.3434L46.6061 114.744L63.4754 134.965L65.752 137.793C66.0204 139.274 66.6798 140.866 67.7021 142.307C70.0371 145.601 73.3805 146.859 75.1697 145.119Z" fill="#FFB6B6"/>
<path d="M29.2211 72.4847C29.2211 72.4847 33.5271 98.6584 38.4269 102.517L48.1911 93.5988C48.1911 93.5988 49.0455 93.5558 47.4552 91.4517C45.865 89.3476 46.2721 84.8292 46.2721 84.8292C46.2721 84.8292 46.9877 85.9137 45.4306 84.4082C43.8735 82.9027 45.3231 72.5492 45.3231 72.5492L29.2211 72.4847Z" fill="#E6E6E6"/>
<path d="M100.338 180.471C100.132 180.471 99.9465 180.303 99.9016 180.058L99.4108 177.387C98.6894 173.46 95.7925 170.592 92.3659 170.413C89.1913 170.246 86.2494 172.448 85.0437 175.891L83.8123 179.407C83.719 179.674 83.4588 179.802 83.23 179.692C83.002 179.583 82.893 179.277 82.9867 179.01L84.2181 175.494C85.5668 171.645 88.853 169.186 92.406 169.368C96.2375 169.568 99.4766 172.776 100.283 177.167L100.774 179.838C100.826 180.12 100.673 180.398 100.432 180.459C100.4 180.467 100.368 180.471 100.338 180.471Z" fill="#FFB6B6"/>
<path d="M100.865 188.974C100.852 188.974 100.838 188.973 100.824 188.972L84.3071 187.246C84.0617 187.221 83.8804 186.967 83.9022 186.679C83.9244 186.392 84.1389 186.181 84.3864 186.205L100.904 187.93C101.149 187.956 101.331 188.21 101.309 188.497C101.288 188.769 101.093 188.974 100.865 188.974Z" fill="#FFB6B6"/>
</g>
<defs>
<clipPath id="clip0_36_398">
<rect width="202" height="247" fill="white"/>
</clipPath>
</defs>
</svg>
