<svg width="261" height="247" viewBox="0 0 261 247" fill="none" xmlns="http://www.w3.org/2000/svg">
    <g clip-path="url(#clip0_36_398)">
        <path d="M105.411 199.106C104.924 198.362 102.818 199.159 102.431 198.483C102.045 197.81 104.002 196.784 105.12 194.442C105.322 194.019 106.592 191.357 105.652 190.535C103.869 188.978 95.7092 195.404 92.8537 193.301C92.227 192.84 91.7893 191.918 89.8926 190.423C89.1381 189.828 88.6819 189.559 88.2403 189.659C87.6138 189.801 87.5642 190.561 86.8923 192.056C85.8848 194.297 85.2889 194.162 84.7018 195.95C84.266 197.278 84.3656 198.049 83.8528 198.2C83.1271 198.413 82.4592 197.004 81.5395 197.131C80.6011 197.259 80.0337 198.899 79.8545 200.126C79.5182 202.43 80.4514 203.95 80.9686 205.548C81.5307 207.285 81.8643 209.927 80.5663 213.667L67.7184 246.483C70.5548 239.749 78.7676 221.29 82.2186 214.431C83.2148 212.45 84.3148 210.442 86.5734 209.649C88.748 208.886 91.7344 209.342 95.5417 208.51C95.9864 208.413 97.2203 208.128 97.3756 207.47C97.504 206.926 96.7782 206.623 96.8897 206.113C97.0393 205.43 98.4666 205.422 100.221 204.633C101.457 204.077 102.228 203.416 102.89 202.848C103.09 202.676 106.06 200.097 105.411 199.106Z" fill="#F2F2F2"/>
        <path d="M54.864 216.382C54.3205 216.383 54.1442 217.551 53.6667 217.528C53.191 217.506 53.2005 216.339 52.2547 215.165C52.0842 214.954 51.0094 213.62 50.2932 213.802C48.9357 214.146 50.0605 219.63 48.0981 220.294C47.6674 220.44 47.0423 220.369 45.6852 220.781C45.1453 220.945 44.8682 221.071 44.795 221.296C44.691 221.616 45.0882 221.857 45.7036 222.587C46.6264 223.682 46.3812 223.908 47.18 224.685C47.7731 225.262 48.2197 225.441 48.1531 225.712C48.0589 226.097 47.1038 225.988 46.9068 226.433C46.7057 226.888 47.4296 227.613 48.0425 228.047C49.1927 228.862 50.2849 228.885 51.2995 229.116C52.4021 229.367 53.9286 229.981 55.5787 231.637L69.6383 246.822C66.8111 243.617 59.1869 234.637 56.4689 231.123C55.6843 230.108 54.9143 229.039 55.1368 227.805C55.351 226.618 56.4594 225.42 57.1077 223.486C57.1835 223.26 57.3854 222.629 57.074 222.37C56.8166 222.156 56.4428 222.392 56.1991 222.195C55.8723 221.931 56.2796 221.294 56.3588 220.286C56.4147 219.575 56.2791 219.042 56.1624 218.583C56.1273 218.445 55.5874 216.379 54.864 216.382Z" fill="#F2F2F2"/>
        <path d="M65.7062 218.588L65.3788 215.938L65.5284 215.737C66.2207 214.808 66.5735 213.901 66.5777 213.04C66.5784 212.903 66.5714 212.766 66.5643 212.627C66.5361 212.074 66.5008 211.387 66.896 210.586C67.1176 210.14 67.74 209.106 68.6757 209.234C68.9277 209.266 69.1182 209.371 69.2629 209.493C69.2841 209.463 69.3059 209.432 69.3292 209.399C69.6207 208.996 69.8514 208.823 70.0737 208.657C70.2445 208.529 70.4209 208.397 70.6975 208.085C70.8189 207.948 70.9135 207.828 70.9932 207.727C71.2353 207.421 71.5514 207.056 72.1089 207.062C72.7045 207.088 73.0164 207.535 73.2232 207.83C73.5923 208.357 73.7595 208.737 73.8703 208.989C73.9105 209.081 73.9564 209.185 73.9797 209.217C74.1716 209.473 75.7319 209.234 76.3197 209.147C77.6401 208.947 78.7826 208.774 79.2533 209.529C79.5906 210.069 79.3401 210.783 78.4862 211.708C78.2202 211.996 77.9372 212.215 77.686 212.386C77.8941 212.499 78.0804 212.672 78.156 212.943C78.3338 213.585 77.7248 214.229 76.3466 214.858C76.0043 215.016 75.5435 215.226 74.8978 215.327C74.5936 215.374 74.3198 215.385 74.0856 215.392C74.0806 215.515 74.0489 215.648 73.9663 215.785C73.7242 216.188 73.2204 216.38 72.4611 216.334C71.6255 216.294 70.9375 216.149 70.3306 216.023C69.8006 215.913 69.344 215.819 68.9856 215.841C68.3208 215.89 67.8085 216.372 67.2072 216.998L65.7062 218.588Z" fill="#F2F2F2"/>
        <path d="M67.2252 202.811L64.4809 203.77L64.2286 203.69C63.0619 203.319 62.0044 203.239 61.0846 203.454C60.9383 203.488 60.794 203.529 60.647 203.571C60.0644 203.736 59.3402 203.941 58.3854 203.797C57.8527 203.716 56.5917 203.433 56.4909 202.58C56.4611 202.351 56.5248 202.157 56.6191 201.999C56.581 201.988 56.5427 201.977 56.5013 201.965C55.9973 201.812 55.7545 201.653 55.5206 201.5C55.3408 201.383 55.1554 201.262 54.7521 201.098C54.5752 201.027 54.4229 200.974 54.2949 200.93C53.9072 200.795 53.4379 200.611 53.3033 200.12C53.1796 199.591 53.5769 199.205 53.8398 198.948C54.3087 198.491 54.6717 198.248 54.9126 198.087C55.0006 198.028 55.0996 197.962 55.1278 197.933C55.3522 197.7 54.7011 196.392 54.4592 195.899C53.9113 194.792 53.4372 193.834 54.1233 193.229C54.6139 192.797 55.4392 192.835 56.6428 193.349C57.0175 193.51 57.3227 193.702 57.5694 193.879C57.6367 193.668 57.7738 193.461 58.0441 193.326C58.6843 193.007 59.5255 193.378 60.5467 194.427C60.8015 194.687 61.1423 195.038 61.4139 195.578C61.5415 195.833 61.6233 196.07 61.6896 196.274C61.8219 196.247 61.9719 196.241 62.1389 196.279C62.6304 196.389 62.9629 196.782 63.1064 197.46C63.276 198.202 63.2963 198.842 63.315 199.407C63.3321 199.899 63.3482 200.323 63.4624 200.632C63.6829 201.203 64.3275 201.53 65.1476 201.898L67.2252 202.811Z" fill="#F2F2F2"/>
        <path d="M65.7062 195.005L65.3788 192.355L65.5284 192.154C66.2207 191.225 66.5735 190.318 66.5777 189.457C66.5784 189.32 66.5714 189.183 66.5643 189.044C66.5361 188.491 66.5008 187.804 66.896 187.003C67.1176 186.556 67.74 185.523 68.6757 185.65C68.9277 185.682 69.1182 185.787 69.2629 185.91C69.2841 185.88 69.3059 185.849 69.3292 185.816C69.6207 185.412 69.8514 185.24 70.0737 185.073C70.2445 184.945 70.4209 184.814 70.6975 184.502C70.8189 184.365 70.9135 184.244 70.9932 184.143C71.2353 183.837 71.5514 183.473 72.1089 183.479C72.7045 183.505 73.0164 183.951 73.2232 184.247C73.5923 184.774 73.7595 185.154 73.8703 185.406C73.9105 185.498 73.9564 185.602 73.9797 185.634C74.1716 185.89 75.7319 185.65 76.3197 185.563C77.6401 185.364 78.7826 185.191 79.2533 185.946C79.5906 186.486 79.3401 187.2 78.4862 188.125C78.2202 188.413 77.9372 188.632 77.686 188.803C77.8941 188.916 78.0804 189.088 78.156 189.36C78.3338 190.002 77.7248 190.646 76.3466 191.275C76.0043 191.432 75.5435 191.642 74.8978 191.743C74.5936 191.791 74.3198 191.802 74.0856 191.809C74.0806 191.931 74.0489 192.064 73.9663 192.201C73.7242 192.604 73.2204 192.796 72.4611 192.75C71.6255 192.711 70.9375 192.566 70.3306 192.439C69.8006 192.329 69.344 192.236 68.9856 192.258C68.3208 192.306 67.8085 192.789 67.2072 193.414L65.7062 195.005Z" fill="#F2F2F2"/>
        <path d="M68.6969 246.44L68.0844 246.092L67.3702 246.166C67.3589 246.106 67.3201 245.967 67.2615 245.751C66.9419 244.566 65.9673 240.961 65.1544 235.283C64.587 231.319 64.2659 227.244 64.1996 223.168C64.1332 219.087 64.3463 215.997 64.5171 213.514C64.6463 211.64 64.8029 209.857 64.9568 208.119C65.3661 203.477 65.7521 199.093 65.4648 194.238C65.4013 193.155 65.2679 190.899 63.8142 188.499C62.9709 187.107 61.8094 185.871 60.3613 184.827L61.2618 183.8C62.8602 184.954 64.1452 186.324 65.0817 187.869C66.6935 190.53 66.8388 192.988 66.9087 194.169C67.2008 199.109 66.8106 203.536 66.3971 208.223C66.2446 209.954 66.088 211.73 65.9595 213.595C65.7902 216.056 65.5792 219.119 65.6448 223.148C65.7097 227.175 66.0273 231.2 66.5869 235.114C67.39 240.72 68.3504 244.272 68.6658 245.439C68.8338 246.062 68.8691 246.193 68.6969 246.44Z" fill="#F2F2F2"/>
        <path d="M57.7108 186.908C57.6515 186.908 57.5916 186.907 57.5309 186.903C56.3002 186.843 55.1605 186.175 54.1429 184.919C53.6658 184.328 53.4217 183.653 52.9347 182.309C52.8592 182.101 52.4923 181.05 52.2693 179.602C52.1232 178.657 52.1416 178.262 52.3483 177.912C52.5777 177.523 52.9489 177.252 53.3666 177.069C53.3483 176.944 53.3631 176.814 53.4231 176.683C53.6694 176.136 54.3242 176.208 54.6785 176.243C54.8577 176.263 55.0814 176.29 55.3228 176.278C55.7025 176.262 55.9064 176.159 56.2155 176.006C56.5112 175.859 56.8788 175.676 57.4243 175.575C58.4998 175.371 59.401 175.648 59.698 175.738C61.2611 176.211 62.0317 177.312 62.9237 178.588C63.1016 178.844 63.712 179.775 64.1149 181.052C64.4057 181.973 64.3647 182.383 64.2772 182.687C64.0994 183.313 63.6795 183.671 62.6132 184.462C61.4996 185.29 60.9408 185.704 60.4609 185.956C59.3438 186.541 58.6423 186.908 57.7108 186.908Z" fill="#F2F2F2"/>
        <path d="M125.41 244.197L129.195 244.197L130.995 230.963L125.409 230.963L125.41 244.197Z" fill="#FFB6B6"/>
        <path d="M138.377 244.119C138.495 244.299 138.557 244.88 138.557 245.089C138.557 245.732 137.982 246.254 137.273 246.254H125.552C125.068 246.254 124.675 245.898 124.675 245.459V245.017C124.675 245.017 124.096 243.687 125.289 242.048C125.289 242.048 126.773 243.332 128.99 241.322L129.644 240.248L134.376 243.386L136.999 243.678C137.573 243.742 138.082 243.669 138.377 244.119Z" fill="#2F2E41"/>
        <path d="M113.876 244.197L117.66 244.197L119.461 230.963L113.875 230.963L113.876 244.197Z" fill="#FFB6B6"/>
        <path d="M126.843 244.119C126.96 244.299 127.023 244.88 127.023 245.089C127.023 245.732 126.447 246.254 125.738 246.254H114.017C113.533 246.254 113.141 245.898 113.141 245.459V245.017C113.141 245.017 112.561 243.687 113.755 242.048C113.755 242.048 115.238 243.332 117.455 241.322L118.109 240.248L122.842 243.386L125.465 243.678C126.038 243.742 126.547 243.669 126.843 244.119Z" fill="#2F2E41"/>
        <path d="M129.782 187.045L133.819 201.217L131.801 237.611L122.285 238.189L121.708 217.238L120.555 238.805L110.75 236.956L110.173 189.51L129.782 187.045Z" fill="#2F2E41"/>
        <path d="M90.701 139.328C89.3984 137.256 87.1631 136.185 85.7086 136.937C84.254 137.689 84.1312 139.978 85.4345 142.05C85.9426 142.885 86.6638 143.597 87.5376 144.127L93.179 152.843L97.6348 150.356L91.6003 142.027C91.5426 141.075 91.2343 140.15 90.701 139.328Z" fill="#FFB6B6"/>
        <path d="M116.339 170.099C116.339 170.099 110.992 176.78 107.722 174.393C104.452 172.005 86.3843 145.17 86.3843 145.17L93.5546 141.686L116.339 170.099Z" fill="#F9A826"/>
        <path d="M111.327 161.949L118.248 152.538L125.168 155.152L123.438 163.518L111.327 161.949Z" fill="#FFB6B6"/>
        <path d="M111.904 159.858L124.015 159.335L132.089 161.426L133.819 200.116L109.597 198.024V177.622L106.136 167.177L111.904 159.858Z" fill="#F9A826"/>
        <path d="M131.892 185.955C131.466 184.83 131.297 183.642 131.406 182.457C131.716 179.112 131.775 172.557 128.013 169.596L125.889 167.51C125.845 167.467 125.795 167.43 125.75 167.387L129.265 159.897L127.142 159.079L123.879 166.031C122.432 165.232 120.763 164.79 119.037 164.79C117.043 164.79 115.137 165.38 113.562 166.418L111.572 159.809L109.347 160.36L111.834 167.897C111.744 167.997 111.645 168.089 111.559 168.193L110.344 169.672C110.048 170.032 109.721 170.366 109.368 170.68C108.622 171.343 107.166 172.951 107.152 175.427C107.147 176.274 106.955 177.111 106.67 177.918L105.226 182.011C105.09 182.395 104.984 182.786 104.911 183.184C104.274 186.689 102.07 203.199 117.139 202.869C131.186 202.561 132.11 194.807 132.029 192.231C132.011 191.673 132.066 191.118 132.181 190.569C132.392 189.561 132.581 187.779 131.892 185.955Z" fill="#3F3D56"/>
        <path d="M195.351 18.8305L196.665 37.2167L180.147 40.6526L181.297 25.7865L195.351 18.8305Z" fill="#FFB6B6"/>
        <path d="M196.608 242.283L189.163 242.283L185.621 216.248L196.61 216.249L196.608 242.283Z" fill="#FFB6B6"/>
        <path d="M171.099 242.13C170.867 242.484 170.745 243.627 170.745 244.038C170.745 245.303 171.876 246.329 173.272 246.329H196.33C197.282 246.329 198.054 245.629 198.054 244.766V243.896C198.054 243.896 199.195 241.28 196.846 238.057C196.846 238.057 193.927 240.581 189.566 236.627L188.28 234.515L178.97 240.687L173.81 241.263C172.681 241.389 171.68 241.244 171.099 242.13Z" fill="#2F2E41"/>
        <path d="M216.794 242.283L209.349 242.283L205.807 216.248L216.796 216.249L216.794 242.283Z" fill="#FFB6B6"/>
        <path d="M191.285 242.13C191.053 242.484 190.931 243.627 190.931 244.038C190.931 245.303 192.062 246.329 193.458 246.329H216.516C217.468 246.329 218.24 245.629 218.24 244.766V243.896C218.24 243.896 219.38 241.28 217.032 238.057C217.032 238.057 214.113 240.581 209.752 236.627L208.466 234.515L199.156 240.687L193.996 241.263C192.867 241.389 191.866 241.244 191.285 242.13Z" fill="#2F2E41"/>
        <path d="M221.482 118.554C221.482 118.554 227.826 125.874 226.672 130.056C225.519 134.239 217.445 230.44 217.445 230.44L205.91 229.917L198.99 143.65L197.209 230.44L186.302 229.917L172.46 122.214L221.482 118.554Z" fill="#2F2E41"/>
        <path d="M154.797 141.893C153.706 145.682 150.665 148.244 148.005 147.614C145.345 146.984 144.073 143.403 145.165 139.612C145.578 138.092 146.386 136.684 147.523 135.506L152.367 119.503L160.603 121.724L154.953 137.264C155.309 138.796 155.256 140.383 154.797 141.893Z" fill="#FFB6B6"/>
        <path d="M181.933 34.0883C191.035 34.0883 198.413 27.3997 198.413 19.1489C198.413 10.8982 191.035 4.20959 181.933 4.20959C172.832 4.20959 165.454 10.8982 165.454 19.1489C165.454 27.3997 172.832 34.0883 181.933 34.0883Z" fill="#FFB6B6"/>
        <path d="M179.958 38.0385L197.259 34.9015L216.291 43.7896L220.329 100.778L225.519 122.214L171.883 122.737L174.19 93.9812L170.73 48.4951L179.958 38.0385Z" fill="#E6E6E6"/>
        <path d="M175.92 50.0636C175.92 50.0636 166.693 47.4494 163.232 52.1549C159.772 56.8603 153.428 99.2095 153.428 99.2095L147.084 131.102L158.619 132.671L177.651 76.7279L175.92 50.0636Z" fill="#E6E6E6"/>
        <path d="M259.854 123.563C261.734 127.089 261.251 130.827 258.775 131.911C256.3 132.996 252.77 131.016 250.889 127.489C250.117 126.089 249.726 124.542 249.748 122.977L241.99 107.946L249.848 104.796L256.662 119.948C258.029 120.905 259.123 122.144 259.854 123.563Z" fill="#FFB6B6"/>
        <path d="M209.068 44.3315C209.068 44.3315 217.355 39.8178 221.942 43.6505C226.53 47.4831 243.714 87.2805 243.714 87.2805L258.178 116.916L247.378 120.907L214.325 70.6133L209.068 44.3315Z" fill="#E6E6E6"/>
        <path d="M248.956 246.378C248.956 246.723 248.65 247 248.27 247H0.686306C0.305683 247 0 246.723 0 246.378C0 246.211 0.0692419 246.064 0.184559 245.954H51.9286C53.0301 245.954 54.1086 245.886 55.1698 245.756H248.27C248.65 245.756 248.956 246.033 248.956 246.378Z" fill="#3F3D56"/>
        <path d="M147.586 143.54C148.615 141.345 150.699 140.047 152.24 140.642C153.78 141.236 154.195 143.496 153.165 145.692C152.767 146.574 152.141 147.357 151.341 147.975L146.85 157.225L142.107 155.222L147.037 146.316C146.973 145.364 147.161 144.412 147.586 143.54Z" fill="#FFB6B6"/>
        <path d="M117.594 159.486C123.453 159.486 128.202 155.181 128.202 149.87C128.202 144.559 123.453 140.254 117.594 140.254C111.736 140.254 106.987 144.559 106.987 149.87C106.987 155.181 111.736 159.486 117.594 159.486Z" fill="#FFB6B6"/>
        <path d="M130.936 161.426L141.317 157.766L144.777 146.787L152.275 149.401L146.507 165.086L130.936 170.479V161.426Z" fill="#F9A826"/>
        <path d="M116.199 160.562L122.526 155.896C122.526 155.896 121.927 148.903 124.201 148.273C126.476 147.644 128.848 145.132 128.848 145.132C128.848 145.132 125.083 137.423 118.457 138.593C111.831 139.763 113.343 137.984 109.26 139.944C105.176 141.904 104.219 144.52 104.716 147.299C105.212 150.079 103.734 156.984 108.68 157.339C113.625 157.695 116.199 160.562 116.199 160.562Z" fill="#2F2E41"/>
        <path d="M171.952 22.4936C170.75 20.5055 171.374 19.5564 170.289 18.7792C170.289 18.7792 169.852 18.4665 166.565 18.0681C166.251 13.1925 165.38 12.5409 165.38 12.5408C164.376 11.7899 162.779 11.8946 161.761 12.2357C159.608 12.9571 159.683 14.8578 158.253 15.1169C156.278 15.4748 161.663 12.4139 161.6 9.17606C161.548 6.53486 163.635 4.12438 164.362 4.31253C165.083 4.4991 167.015 2.59653 167.959 2.69642C168.604 2.76463 171.338 1.91494 172.041 2.0478C172.81 2.19292 175.262 3.58901 175.393 3.32011C176.304 1.45157 176.133 0.902462 176.81 0.398099C178.01 -0.495626 179.774 0.314959 182.601 0.886369C188.419 2.06205 189.601 0.377661 192.511 1.78815C193.981 2.50066 195.113 4.21701 197.315 7.62062C200.396 12.3805 201.936 14.7605 201.716 17.3903C201.491 20.0722 200.074 19.7983 199.095 23.7219C198.005 28.0894 199.315 30.2175 197.563 31.5352C196.209 32.5536 184.982 32.632 183.726 31.5612C181.576 29.7279 184.936 25.9231 182.653 22.8002C181.252 20.8833 178.185 19.8533 176.669 20.6409C174.955 21.5315 175.589 24.5558 174.422 24.7536C173.422 24.9231 172.162 22.8401 171.952 22.4936Z" fill="#2F2E41"/>
        <path d="M92.0805 144.03C94.376 142.272 93.7666 138.196 90.719 134.926C89.385 133.494 87.805 132.454 86.2574 131.885L84.4787 130.024L61.5096 103.934C61.5096 103.934 48.7897 77.9801 45.0348 75.1762C41.2799 72.3722 36.8622 73.8321 36.8622 73.8321L33.4153 77.698L54.8946 113.936L76.8772 133.992L79.8447 136.796C80.2053 138.275 81.072 139.861 82.4061 141.292C85.4535 144.562 89.7849 145.788 92.0805 144.03Z" fill="#FFB6B6"/>
        <path d="M48.7229 80.002L54.479 87.6548L62.7424 98.7417L47.8945 103.398L34.7849 83.0055L48.7229 80.002Z" fill="#E6E6E6"/>
        <path d="M54.567 53.9566L50.3982 68.3651L34.5044 65.5306C34.5044 65.5306 40.7577 55.1376 39.1944 50.4136L54.567 53.9566Z" fill="#FFB6B6"/>
        <path d="M37.7891 241.51L47.3603 241.509L51.9133 208.041L37.7872 208.042L37.7891 241.51Z" fill="#FFB6B6"/>
        <path d="M70.5809 241.313C70.879 241.768 71.0362 243.236 71.0362 243.766C71.0362 245.392 69.5818 246.71 67.7877 246.71H38.1471C36.9232 246.71 35.931 245.811 35.931 244.701V243.583C35.931 243.583 34.4647 240.22 37.4835 236.076C37.4835 236.076 41.2355 239.321 46.842 234.239L48.4953 231.523L60.4629 239.458L67.0964 240.198C68.5476 240.36 69.8344 240.173 70.5809 241.313Z" fill="#2F2E41"/>
        <path d="M64.3648 144.654L51.1762 226.014H34.6293L36.8295 179.572L37.9876 155.152L34.6293 143.529C34.6293 143.529 33.0981 140.945 31.8082 137.813C30.3542 134.279 29.2059 130.042 30.9107 128.032C31.538 127.292 33.1689 126.744 35.3852 126.335C36.7395 126.084 38.3157 125.889 40.0173 125.737C49.8026 124.86 63.7215 125.408 63.7215 125.408L64.0753 135.993L64.2715 141.904L64.3648 144.654Z" fill="#2F2E41"/>
        <path d="M20.9293 237.531L30.3988 238.792L40.2733 206.281L26.2973 204.419L20.9293 237.531Z" fill="#FFB6B6"/>
        <path d="M53.4039 241.66C53.6258 242.15 53.5457 243.623 53.4608 244.147C53.1999 245.756 51.5494 246.868 49.7744 246.632L20.449 242.723C19.2381 242.562 18.4008 241.541 18.5788 240.443L18.7583 239.337C18.7583 239.337 17.8471 235.817 21.4988 232.115C21.4988 232.115 24.6902 235.82 31.0525 231.531L33.1239 229.062L43.6911 238.491L50.1353 240.098C51.5451 240.449 52.8482 240.434 53.4039 241.66Z" fill="#2F2E41"/>
        <path d="M64.5723 131.086L62.7634 145.208L52.8983 174.969L36.6588 223.965L20.2897 221.784L34.9808 152.119L33.5261 140.174C33.5261 140.174 33.0524 138.986 32.5093 137.248C31.4315 133.809 30.0796 128.208 31.5669 125.351C31.7677 124.963 32.0198 124.626 32.3317 124.353C32.9167 123.839 34.1056 123.527 35.6986 123.361C42.3567 122.679 56.0686 124.63 62.1701 125.588L64.5723 131.086Z" fill="#2F2E41"/>
        <path d="M51.9615 64.1134L69.9397 84.6631L66.7126 106.088L63.947 127.888L31.3778 123.401C31.3778 123.401 38.4127 108.047 39.1944 107.339C39.976 106.63 41.9394 108.38 40.5669 106.088C39.1944 103.796 37.6311 103.796 38.9338 102.615C40.2366 101.434 28.7722 86.0803 28.7722 77.8132C28.7722 69.5461 34.2438 62.9324 34.2438 62.9324L51.9615 64.1134Z" fill="#E6E6E6"/>
        <path d="M47.7669 56.6776C54.4556 56.6776 59.8779 51.7621 59.8779 45.6984C59.8779 39.6348 54.4556 34.7192 47.7669 34.7192C41.0782 34.7192 35.6559 39.6348 35.6559 45.6984C35.6559 51.7621 41.0782 56.6776 47.7669 56.6776Z" fill="#FFB6B6"/>
        <path d="M47.201 66.6903C47.201 66.6903 49.0132 53.6908 49.334 49.9105C49.6548 46.1301 55.5411 40.2279 55.5411 40.2279L59.7111 43.2813C59.7111 43.2813 63.2396 43.2813 60.8338 38.6286C58.428 33.9758 53.9372 33.2488 53.9372 33.2488C53.9372 33.2488 53.456 27.1421 45.1159 27.8691C36.7758 28.5961 33.0869 34.7028 33.0869 34.7028C33.0869 34.7028 32.6058 26.9968 27.313 32.6673C22.0203 38.3378 18.9729 40.6641 24.5864 42.5543C30.2 44.4445 34.37 42.9905 34.37 42.9905C34.37 42.9905 28.9169 44.0083 29.8792 47.4978C30.8415 50.9874 17.2087 66.8357 23.4637 68.5805C29.7188 70.3252 43.6724 74.5417 45.2763 71.7792C46.8802 69.0166 47.201 66.6903 47.201 66.6903Z" fill="#2F2E41"/>
        <path d="M97.1252 145.119C99.4369 143.378 98.8652 139.298 95.848 136.004C94.5273 134.563 92.9569 133.511 91.4146 132.93L89.6531 131.056L66.9261 104.792C66.9261 104.792 54.4465 78.7423 50.7177 75.9099C46.9889 73.0776 42.5578 74.5038 42.5578 74.5038L39.0753 78.3434L60.2188 114.744L82.0153 134.965L84.9568 137.793C85.3036 139.274 86.1556 140.866 87.4764 142.307C90.4935 145.601 94.8134 146.859 97.1252 145.119Z" fill="#FFB6B6"/>
        <path d="M37.7559 72.4847C37.7559 72.4847 43.3195 98.6584 49.6506 102.517L62.2666 93.5988C62.2666 93.5988 63.3706 93.5558 61.3159 91.4517C59.2611 89.3476 59.7872 84.8292 59.7872 84.8292C59.7872 84.8292 60.7117 85.9137 58.6999 84.4082C56.688 82.9027 58.5609 72.5492 58.5609 72.5492L37.7559 72.4847Z" fill="#E6E6E6"/>
        <path d="M129.644 180.471C129.378 180.471 129.139 180.303 129.081 180.058L128.447 177.387C127.515 173.46 123.772 170.592 119.344 170.413C115.242 170.246 111.441 172.448 109.883 175.891L108.292 179.407C108.172 179.674 107.836 179.802 107.54 179.692C107.245 179.583 107.104 179.277 107.226 179.01L108.817 175.494C110.559 171.645 114.805 169.186 119.396 169.368C124.347 169.568 128.532 172.776 129.574 177.167L130.209 179.838C130.276 180.12 130.077 180.398 129.766 180.459C129.725 180.467 129.684 180.471 129.644 180.471Z" fill="#FFB6B6"/>
        <path d="M130.325 188.974C130.308 188.974 130.291 188.973 130.273 188.972L108.932 187.246C108.614 187.221 108.38 186.967 108.408 186.679C108.437 186.392 108.714 186.181 109.034 186.205L130.376 187.93C130.693 187.956 130.927 188.21 130.899 188.497C130.872 188.769 130.621 188.974 130.325 188.974Z" fill="#FFB6B6"/>
    </g>
    <defs>
        <clipPath id="clip0_36_398">
            <rect width="261" height="247" fill="white"/>
        </clipPath>
    </defs>
</svg>
